<?xml version="1.0" standalone="no"?><!-- Generator: Gravit.io --><svg xmlns="http://www.w3.org/2000/svg" xmlns:xlink="http://www.w3.org/1999/xlink" style="isolation:isolate" viewBox="0 0 534.557 141.133" width="534.557" height="141.133"><defs><clipPath id="_clipPath_MReCnj0SQjifQ13hnR13pxcUrcRmVoC6"><rect width="534.557" height="141.133"/></clipPath></defs><g clip-path="url(#_clipPath_MReCnj0SQjifQ13hnR13pxcUrcRmVoC6)"><clipPath id="_clipPath_1pvOp5sj38WHsNSoGjfMNIT0JGaR6b5B"><path d=" M 0 0 L 0 141.133 L 534.557 141.133 L 534.557 0 L 0 0 Z " fill="rgb(255,255,255)"/></clipPath><g clip-path="url(#_clipPath_1pvOp5sj38WHsNSoGjfMNIT0JGaR6b5B)"><path d=" M 113.3 116.237 C 117.14 116.237 120.968 116.237 124.875 116.237 C 124.875 123.821 124.875 131.283 124.875 138.821 C 106.626 138.821 88.431 138.821 70.241 138.821 C 69.989 137.953 69.895 118.331 70.15 116.255 C 73.946 116.214 77.77 116.259 81.566 116.23 C 81.83 115.285 81.892 69.774 81.642 68.329 C 69.165 68.329 56.675 68.329 44.192 68.329 C 43.928 69.257 43.892 114.936 44.172 116.223 C 48.62 116.223 53.095 116.223 57.657 116.223 C 57.657 123.803 57.657 131.264 57.657 138.811 C 38.761 138.811 19.887 138.811 0.938 138.811 C 0.938 131.305 0.938 123.844 0.938 116.238 C 4.819 116.238 8.641 116.238 12.528 116.238 C 12.528 100.203 12.528 84.313 12.528 68.266 C 8.351 68.266 4.207 68.266 0 68.266 C 0 60.677 0 53.244 0 45.631 C 4.136 45.552 8.279 45.642 12.597 45.581 C 12.597 45 12.6 44.49 12.596 43.98 C 12.569 40.333 12.726 36.704 13.455 33.113 C 15.585 22.613 21.725 15.42 31.484 11.219 C 35.899 9.318 40.539 8.271 45.301 7.693 C 50.709 7.037 56.121 7.091 61.538 7.512 C 62.661 7.6 63.778 7.778 64.94 7.919 C 64.94 16.129 64.94 24.25 64.94 32.485 C 63.455 32.369 62.022 32.243 60.588 32.147 C 57.592 31.946 54.592 31.926 51.639 32.508 C 50.386 32.755 49.126 33.182 47.991 33.764 C 45.621 34.98 44.301 37.032 44.118 39.68 C 43.986 41.603 44.092 43.542 44.092 45.575 C 67.068 45.575 90.002 45.575 112.822 45.575 C 112.966 45.706 113 45.73 113.025 45.761 C 113.05 45.79 113.07 45.824 113.085 45.86 C 113.1 45.897 113.109 45.938 113.114 45.977 C 113.123 46.057 113.132 46.138 113.136 46.219 C 113.141 46.299 113.141 46.38 113.141 46.461 C 113.142 46.542 113.143 46.623 113.143 46.704 C 113.143 69.614 113.144 92.524 113.145 115.433 C 113.145 115.514 113.15 115.595 113.153 115.676 C 113.154 115.716 113.154 115.757 113.16 115.797 C 113.167 115.837 113.178 115.876 113.19 115.914 C 113.201 115.953 113.216 115.99 113.3 116.237 Z " fill="rgb(55,53,53)"/></g><clipPath id="_clipPath_cRx8C1WzR85wOXXb51OH9kjhESkyneut"><path d=" M 0 0 L 0 141.133 L 534.557 141.133 L 534.557 0 L 0 0 Z " fill="rgb(255,255,255)"/></clipPath><g clip-path="url(#_clipPath_cRx8C1WzR85wOXXb51OH9kjhESkyneut)"><path d=" M 263.739 80.7 C 272.595 80.7 281.362 80.7 290.186 80.7 C 290.221 80.46 290.297 80.262 290.269 80.081 C 290.047 78.688 289.951 77.253 289.541 75.915 C 288.439 72.322 286.38 69.381 282.796 67.946 C 277.882 65.979 273.308 67 269.286 70.265 C 266.143 72.817 264.636 76.404 263.69 80.247 C 263.664 80.354 263.713 80.48 263.739 80.7 Z  M 322.227 128.036 C 320.157 129.712 318.024 131.091 315.806 132.349 C 308.22 136.653 300.079 139.327 291.45 140.461 C 281.867 141.719 272.356 141.359 263.17 138.121 C 246.225 132.148 235.807 120.219 231.89 102.752 C 229.515 92.164 230.481 81.698 234.648 71.689 C 240.753 57.018 251.835 48.141 267.277 44.669 C 273.733 43.217 280.27 43.033 286.821 43.927 C 295.195 45.07 302.742 48.131 309.067 53.867 C 314.897 59.155 318.621 65.737 320.735 73.257 C 322.527 79.628 323.124 86.124 322.529 92.722 C 322.412 94.012 322.316 95.303 322.194 96.591 C 322.153 97.028 322.063 97.461 321.98 97.994 C 302.298 97.994 282.684 97.994 262.978 97.994 C 262.998 98.376 262.973 98.648 263.033 98.901 C 265.402 108.864 272.668 113.712 280.632 114.844 C 285.356 115.516 289.988 114.96 294.561 113.712 C 299.986 112.231 305.037 109.911 309.79 106.921 C 310.092 106.732 310.402 106.553 310.817 106.304 C 314.616 113.539 318.388 120.724 322.227 128.036 Z " fill="rgb(55,53,53)"/></g><clipPath id="_clipPath_DNkd3ZTSEfJUt6otpOBxfXlBT7haajrK"><path d=" M 0 0 L 0 141.133 L 534.557 141.133 L 534.557 0 L 0 0 Z " fill="rgb(255,255,255)"/></clipPath><g clip-path="url(#_clipPath_DNkd3ZTSEfJUt6otpOBxfXlBT7haajrK)"><path d=" M 194.567 138.842 C 182.231 138.842 169.977 138.842 157.542 138.842 C 148.944 115.388 140.324 91.878 131.659 68.243 C 128.18 68.243 124.721 68.243 121.207 68.243 C 121.207 60.662 121.207 53.23 121.207 45.806 C 122.07 45.558 169.018 45.472 170.77 45.72 C 170.77 53.169 170.77 60.63 170.77 68.217 C 168.077 68.217 165.423 68.217 162.587 68.217 C 162.703 68.705 162.762 69.041 162.864 69.363 C 166.379 80.459 169.891 91.556 173.421 102.648 C 174.454 105.896 175.115 109.218 175.532 112.596 C 175.599 113.137 175.711 113.674 175.805 114.231 C 176.617 114.116 176.451 113.575 176.498 113.182 C 176.882 109.965 177.421 106.778 178.381 103.678 C 179.554 99.895 180.771 96.126 181.967 92.35 C 184.371 84.76 186.774 77.169 189.175 69.578 C 189.293 69.203 189.387 68.821 189.535 68.287 C 186.767 68.287 184.12 68.287 181.386 68.287 C 181.386 60.692 181.386 53.23 181.386 45.684 C 197.853 45.684 214.303 45.684 230.841 45.684 C 230.841 53.161 230.841 60.621 230.841 68.202 C 227.404 68.202 223.982 68.202 220.465 68.202 C 211.817 91.79 203.196 115.305 194.567 138.842 Z " fill="rgb(55,53,53)"/></g><clipPath id="_clipPath_0rpkmzQq0yJsIyYFsW4lTRZ65ttyM49P"><path d=" M 0 0 L 0 141.133 L 534.557 141.133 L 534.557 0 L 0 0 Z " fill="rgb(255,255,255)"/></clipPath><g clip-path="url(#_clipPath_0rpkmzQq0yJsIyYFsW4lTRZ65ttyM49P)"><path d=" M 373.878 116.234 C 378.093 116.234 382.207 116.234 386.405 116.234 C 386.405 123.811 386.405 131.277 386.405 138.819 C 367.553 138.819 348.752 138.819 329.953 138.819 C 329.719 137.954 329.636 118.289 329.877 116.263 C 333.992 116.198 338.135 116.276 342.355 116.22 C 342.38 115.72 342.415 115.328 342.415 114.936 C 342.418 100.851 342.39 86.765 342.439 72.681 C 342.449 69.648 340.987 68.223 337.992 68.252 C 335.685 68.274 333.378 68.259 331.071 68.253 C 330.677 68.252 330.283 68.216 329.83 68.193 C 329.83 60.678 329.83 53.245 329.83 45.71 C 330.12 45.675 330.425 45.606 330.73 45.606 C 340.606 45.605 350.481 45.604 360.357 45.62 C 362.145 45.622 363.897 45.912 365.605 46.466 C 369.356 47.683 371.497 50.298 372.23 54.111 C 372.405 55.019 372.498 55.956 372.509 56.882 C 372.539 59.35 372.524 61.819 372.485 64.288 C 372.472 65.169 372.34 66.049 372.48 67.007 C 372.646 66.593 372.819 66.182 372.977 65.765 C 375.928 57.942 380.943 51.851 388.222 47.684 C 392.186 45.415 396.478 44.215 401.036 43.965 C 402.614 43.878 404.175 44.005 405.772 44.347 C 405.772 54.592 405.772 64.774 405.772 75.017 C 403.93 74.888 402.133 74.704 400.331 74.65 C 396.709 74.54 393.137 74.914 389.68 76.059 C 382.594 78.407 378.057 83.287 375.659 90.268 C 374.357 94.057 373.873 97.985 373.819 101.965 C 373.76 106.416 373.799 110.869 373.8 115.321 C 373.8 115.558 373.839 115.796 373.878 116.234 Z " fill="rgb(55,53,53)"/></g><clipPath id="_clipPath_TlipZQJVgkJUCR7KIlFUdVyxiUll6IVu"><path d=" M 0 0 L 0 141.133 L 534.557 141.133 L 534.557 0 L 0 0 Z " fill="rgb(255,255,255)"/></clipPath><g clip-path="url(#_clipPath_TlipZQJVgkJUCR7KIlFUdVyxiUll6IVu)"><path d=" M 488.813 75.04 C 487.224 74.914 485.775 74.774 484.324 74.69 C 480.661 74.477 477.04 74.771 473.513 75.81 C 465.784 78.089 460.929 83.268 458.495 90.849 C 457.41 94.227 456.922 97.712 456.862 101.241 C 456.782 105.976 456.831 110.712 456.828 115.447 C 456.828 115.646 456.864 115.843 456.9 116.208 C 461.052 116.283 465.195 116.206 469.413 116.254 C 469.413 123.824 469.413 131.285 469.413 138.821 C 450.564 138.821 431.766 138.821 412.886 138.821 C 412.886 131.321 412.886 123.859 412.886 116.278 C 417.033 116.278 421.143 116.278 425.362 116.278 C 425.402 115.827 425.46 115.483 425.461 115.14 C 425.465 100.892 425.463 86.645 425.466 72.397 C 425.466 71.36 425.297 70.373 424.62 69.551 C 423.739 68.482 422.504 68.272 421.221 68.262 C 418.915 68.243 416.607 68.256 414.3 68.256 C 413.86 68.256 413.42 68.256 412.892 68.256 C 412.892 60.697 412.892 53.234 412.892 45.679 C 413.249 45.653 413.599 45.605 413.95 45.604 C 423.542 45.601 433.135 45.602 442.727 45.602 C 444.721 45.602 446.681 45.828 448.587 46.447 C 452.482 47.711 454.657 50.441 455.306 54.422 C 455.481 55.495 455.555 56.595 455.555 57.683 C 455.557 60.752 455.497 63.82 455.459 67.072 C 455.628 66.671 455.762 66.382 455.872 66.085 C 458.69 58.458 463.464 52.412 470.427 48.16 C 474.615 45.603 479.184 44.228 484.084 43.963 C 485.662 43.878 487.222 44.008 488.813 44.348 C 488.813 54.6 488.813 64.782 488.813 75.04 Z " fill="rgb(55,53,53)"/></g><clipPath id="_clipPath_AK72TFuCDuoQfc9XpkeNJNZetTixoVtT"><path d=" M 0 0 L 0 141.133 L 534.557 141.133 L 534.557 0 L 0 0 Z " fill="rgb(255,255,255)"/></clipPath><g clip-path="url(#_clipPath_AK72TFuCDuoQfc9XpkeNJNZetTixoVtT)"><path d=" M 82.433 20.568 C 82.468 12.231 89.195 5.524 97.505 5.541 C 105.838 5.558 112.624 12.401 112.574 20.735 C 112.523 29.01 105.702 35.73 97.398 35.687 C 89.064 35.644 82.399 28.91 82.433 20.568 Z " fill="rgb(55,53,53)"/></g><clipPath id="_clipPath_fLvi6ZYifa8vy5bxrIStORqdKdgm0ctE"><path d=" M 0 0 L 0 141.133 L 534.557 141.133 L 534.557 0 L 0 0 Z " fill="rgb(255,255,255)"/></clipPath><g clip-path="url(#_clipPath_fLvi6ZYifa8vy5bxrIStORqdKdgm0ctE)"><path d=" M 514.521 34.736 C 517.503 34.761 520.177 33.852 522.541 32.059 C 529.743 26.596 530.193 15.147 523.456 9.099 C 517.897 4.109 509.436 4.66 504.579 10.327 C 499.862 15.831 499.901 24.803 504.699 30.224 C 507.299 33.163 510.563 34.724 514.521 34.736 Z  M 534.557 20.127 C 534.443 30.038 527.55 38.518 517.827 40.131 C 509.984 41.433 503.554 38.648 498.805 32.317 C 492.154 23.453 494.048 10.549 502.837 3.927 C 514.072 -4.536 530.412 1.359 533.761 15.112 C 534.16 16.751 534.298 18.453 534.557 20.127 Z " fill="rgb(55,53,53)"/></g><clipPath id="_clipPath_0vhA3qwvoFyT8hUXwGloWO8zTiRoMSiD"><path d=" M 0 0 L 0 141.133 L 534.557 141.133 L 534.557 0 L 0 0 Z " fill="rgb(255,255,255)"/></clipPath><g clip-path="url(#_clipPath_0vhA3qwvoFyT8hUXwGloWO8zTiRoMSiD)"><path d=" M 523.994 29.497 C 522.607 26.832 521.294 24.31 519.991 21.807 C 520.033 21.741 520.047 21.698 520.076 21.677 C 520.174 21.607 520.276 21.543 520.379 21.481 C 522.292 20.313 523.156 18.569 523.014 16.376 C 522.859 13.982 521.81 12.081 519.499 11.148 C 518.62 10.793 517.625 10.589 516.677 10.563 C 513.846 10.486 511.013 10.53 508.18 10.535 C 507.948 10.536 507.715 10.6 507.423 10.644 C 507.423 16.934 507.423 23.181 507.423 29.481 C 509.412 29.481 511.327 29.481 513.383 29.481 C 513.383 27.322 513.383 25.24 513.383 23.155 C 513.952 23.155 514.379 23.155 514.836 23.155 C 515.746 25.321 516.634 27.436 517.5 29.497 C 519.671 29.497 521.718 29.497 523.994 29.497 Z " fill="rgb(254,254,254)"/></g><clipPath id="_clipPath_YPiPq4Bj72V7CFVrNdeltsZn8TlYgllp"><path d=" M 0 0 L 0 141.133 L 534.557 141.133 L 534.557 0 L 0 0 Z " fill="rgb(255,255,255)"/></clipPath><g clip-path="url(#_clipPath_YPiPq4Bj72V7CFVrNdeltsZn8TlYgllp)"><path d=" M 513.426 14.575 C 513.426 16.136 513.426 17.559 513.426 19.079 C 514.599 19.074 515.787 19.384 516.556 18.254 C 517.142 17.391 517.152 16.39 516.625 15.506 C 515.914 14.315 514.682 14.631 513.426 14.575 Z  M 523.994 29.497 C 521.718 29.497 519.671 29.497 517.5 29.497 C 516.634 27.436 515.746 25.321 514.836 23.155 C 514.379 23.155 513.952 23.155 513.383 23.155 C 513.383 25.24 513.383 27.322 513.383 29.481 C 511.327 29.481 509.412 29.481 507.423 29.481 C 507.423 23.181 507.423 16.934 507.423 10.644 C 507.715 10.6 507.948 10.536 508.18 10.535 C 511.013 10.53 513.846 10.486 516.677 10.563 C 517.625 10.589 518.62 10.793 519.499 11.148 C 521.81 12.081 522.859 13.982 523.014 16.376 C 523.156 18.569 522.292 20.313 520.379 21.481 C 520.276 21.543 520.174 21.607 520.076 21.677 C 520.047 21.698 520.033 21.741 519.991 21.807 C 521.294 24.31 522.607 26.832 523.994 29.497 Z " fill="rgb(55,53,53)"/></g></g></svg>